<svg xmlns="http://www.w3.org/2000/svg" width="55" height="64" viewBox="0 0 55 64" fill="none">
  <path d="M16.3448 15.0811C15.4835 13.4988 13.4884 12.899 12.0205 13.9435C8.00677 16.7996 4.82672 20.7063 2.84794 25.2622C0.434034 30.8198 -0.0538207 37.0246 1.46186 42.8911C2.97753 48.7577 6.40984 53.9497 11.2137 57.6426C16.0175 61.3354 21.9174 63.3174 27.9765 63.2737C34.0355 63.23 39.9063 61.1632 44.6564 57.4015C49.4065 53.6398 52.7637 48.3989 54.1946 42.5111C55.6256 36.6233 55.0484 30.4262 52.5546 24.9039C50.5104 20.3771 47.2743 16.5166 43.2199 13.7186C41.7371 12.6954 39.7508 13.3239 38.9124 14.9185C38.0741 16.513 38.7073 18.4662 40.1502 19.5449C42.9346 21.6264 45.1636 24.3886 46.6088 27.5889C48.5041 31.7859 48.9428 36.4957 47.8553 40.9704C46.7677 45.4451 44.2163 49.4282 40.6062 52.2871C36.9961 55.146 32.5344 56.7168 27.9295 56.75C23.3246 56.7832 18.8407 55.2769 15.1897 52.4703C11.5388 49.6637 8.93027 45.7178 7.77835 41.2592C6.62644 36.8006 6.99721 32.085 8.83178 27.8612C10.2307 24.6403 12.4197 21.8463 15.1738 19.7249C16.601 18.6255 17.206 16.6634 16.3448 15.0811Z" fill="#CBCBCB"/>
  <rect x="24.7617" y="0.855469" width="7.04743" height="38.2575" rx="3.52371" fill="#CBCBCB"/>
</svg>